<?xml version="1.0" encoding="UTF-8" standalone="no"?>
<!-- Created with Inkscape (http://www.inkscape.org/) -->

<svg
   width="20.557678mm"
   height="15.366997mm"
   viewBox="0 0 20.557678 15.366997"
   version="1.1"
   id="svg193"
   xmlns="http://www.w3.org/2000/svg"
   xmlns:svg="http://www.w3.org/2000/svg">
  <defs
     id="defs190" />
  <g
     id="layer1"
     transform="translate(-163.15453,-72.475004)">
    <g
       id="g15"
       transform="matrix(9.5041986e-4,0,0,9.1585825e-4,97.55254,19.648939)">
      <g
         id="g158"
         transform="matrix(0.00695036,0,0,0.00695036,90024.241,69712.085)">
        <g
           id="g220"
           transform="matrix(39.020892,0,0,39.020892,-3446758.2,-2669066.6)">
          <path
             style="fill:#999999"
             d="m 52500,34700 -700,5500 -100,9100 12400,-5800 z"
             id="path2941" />
          <path
             style="fill:#999999"
             d="m 58000,70100 -3100,-3600 12800,-17500 -16000,500 1000,-4600 24700,-6500 5000,7600 z"
             id="path2938" />
          <path
             style="fill:#999999"
             d="m 46300,42100 -100,24900 -1500,3100 -9800,-10700 -700,-24900 10900,400 z"
             id="path2935" />
          <path
             style="fill:#999999"
             d="m 11700,34600 11500,21200 7300,-300 100,-13500 -8100,-7400 z"
             id="path2932" />
          <path
             style="fill:#ffffff"
             d="m 11700,34500 -800,17200 c 0,0 1000,9900 10000,9900 9000,0 12500,-100 12500,-100 v 8500 h 11300 l 100,-8400 3800,-100 -100,-10300 -3600,-200 300,-16300 -11100,-200 -200,16200 -9700,400 c 0,0 -2200,500 -2200,-1800 0,-2300 500,-14600 500,-14600 z"
             id="path2757" />
          <path
             style="fill:#ffffff"
             d="m 52400,34700 34500,100 c 0,0 3600,-400 3600,4300 0,4700 500,1900 -300,3700 -800,1800 -18600,27200 -18600,27200 l -13700,200 100,-1100 17800,-24500 -23200,300 z"
             id="path2759" />
        </g>
      </g>
    </g>
  </g>
</svg>
